<svg xmlns="http://www.w3.org/2000/svg" xmlns:xlink="http://www.w3.org/1999/xlink" contentStyleType="text/css" data-diagram-type="DESCRIPTION" height="506px" preserveAspectRatio="none" style="width:743px;height:506px;background:#FFFFFF;" version="1.1" viewBox="0 0 743 506" width="743px" zoomAndPan="magnify"><defs/><g><!--cluster ?? ?????????--><g class="cluster" data-entity=".. ........." data-source-line="8" data-uid="ent0005" id="cluster_.. ........."><rect fill="none" height="339" rx="2.5" ry="2.5" style="stroke:#181818;stroke-width:1;" width="601.5" x="136" y="75.5"/><text fill="#000000" font-family="Arial" font-size="14" font-weight="bold" lengthAdjust="spacing" textLength="101.3223" x="386.0889" y="90.6318">&#1048;&#1057; &#1055;&#1086;&#1090;&#1077;&#1088;&#1103;&#1096;&#1082;&#1080;</text></g><!--entity Subscriber--><g class="entity" data-entity="Subscriber" data-source-line="5" data-uid="ent0002" id="entity_Subscriber"><ellipse cx="56.3291" cy="147" fill="#F1F1F1" rx="8" ry="8" style="stroke:#181818;stroke-width:0.5;"/><path d="M56.3291,155 L56.3291,182 M43.3291,163 L69.3291,163 M56.3291,182 L43.3291,197 M56.3291,182 L69.3291,197" fill="none" style="stroke:#181818;stroke-width:0.5;"/><text fill="#000000" font-family="Arial" font-size="14" lengthAdjust="spacing" textLength="69.6582" x="21.5" y="211.6318">&#1055;&#1086;&#1076;&#1087;&#1080;&#1089;&#1095;&#1080;&#1082;</text></g><!--entity Moderator--><g class="entity" data-entity="Moderator" data-source-line="6" data-uid="ent0003" id="entity_Moderator"><ellipse cx="270.98" cy="433" fill="#F1F1F1" rx="8" ry="8" style="stroke:#181818;stroke-width:0.5;"/><path d="M270.98,441 L270.98,468 M257.98,449 L283.98,449 M270.98,468 L257.98,483 M270.98,468 L283.98,483" fill="none" style="stroke:#181818;stroke-width:0.5;"/><text fill="#000000" font-family="Arial" font-size="14" lengthAdjust="spacing" textLength="72.96" x="234.5" y="497.6318">&#1052;&#1086;&#1076;&#1077;&#1088;&#1072;&#1090;&#1086;&#1088;</text></g><!--entity Admin--><g class="entity" data-entity="Admin" data-source-line="7" data-uid="ent0004" id="entity_Admin"><ellipse cx="56.7363" cy="320" fill="#F1F1F1" rx="8" ry="8" style="stroke:#181818;stroke-width:0.5;"/><path d="M56.7363,328 L56.7363,355 M43.7363,336 L69.7363,336 M56.7363,355 L43.7363,370 M56.7363,355 L69.7363,370" fill="none" style="stroke:#181818;stroke-width:0.5;"/><text fill="#000000" font-family="Arial" font-size="14" lengthAdjust="spacing" textLength="101.4727" x="6" y="384.6318">&#1040;&#1076;&#1084;&#1080;&#1085;&#1080;&#1089;&#1090;&#1088;&#1072;&#1090;&#1086;&#1088;</text></g><g class="entity" data-entity="GMN19" data-source-line="24" data-uid="ent0020" id="entity_GMN19"><path d="M493,12 L493,66.8462 A0,0 0 0 0 493,66.8462 L498.8378,66.8462 L374.3133,152.4756 L506.8378,66.8462 L734.6763,66.8462 A0,0 0 0 0 734.6763,66.8462 L734.6763,22 L724.6763,12 L493,12 A0,0 0 0 0 493,12" fill="#FEFFDD" style="stroke:#181818;stroke-width:0.5;"/><path d="M724.6763,12 L724.6763,22 L734.6763,22 L724.6763,12" fill="#FEFFDD" style="stroke:#181818;stroke-width:0.5;"/><text fill="#000000" font-family="Arial" font-size="13" lengthAdjust="spacing" textLength="220.6763" x="499" y="29.1938">&#1047;&#1072;&#1087;&#1091;&#1089;&#1082; &#1074;&#1085;&#1091;&#1090;&#1088;&#1077;&#1085;&#1085;&#1080;&#1084; &#1087;&#1083;&#1072;&#1085;&#1080;&#1088;&#1086;&#1074;&#1097;&#1080;&#1082;&#1086;&#1084;.</text><text fill="#000000" font-family="Arial" font-size="13" lengthAdjust="spacing" textLength="182.8696" x="499" y="44.1426">&#1057;&#1090;&#1086;&#1088;&#1086;&#1085;&#1099; &#1087;&#1086;&#1083;&#1091;&#1095;&#1072;&#1102;&#1090; &#1088;&#1077;&#1079;&#1091;&#1083;&#1100;&#1090;&#1072;&#1090;.</text><text fill="#000000" font-family="Arial" font-size="13" lengthAdjust="spacing" textLength="168.4414" x="499" y="59.0913">&#1055;&#1077;&#1088;&#1077;&#1076;&#1072;&#1095;&#1072; &#1086;&#1087;&#1080;&#1089;&#1072;&#1085;&#1072; &#1074; UC-10.</text></g><!--entity U12--><g class="entity" data-entity="U12" data-source-line="9" data-uid="ent0006" id="entity_U12"><ellipse cx="271.0275" cy="245.7055" fill="#F1F1F1" rx="124.0275" ry="27.2055" style="stroke:#181818;stroke-width:0.5;"/><text fill="#000000" font-family="Arial" font-size="14" lengthAdjust="spacing" textLength="228.2793" x="156.8878" y="250.2548">UC-12. &#1044;&#1086;&#1087;&#1091;&#1089;&#1082; &#1080; &#1074;&#1099;&#1089;&#1090;&#1072;&#1074;&#1083;&#1077;&#1085;&#1080;&#1077; &#1083;&#1086;&#1090;&#1072;</text></g><!--entity Permission--><g class="entity" data-entity="Permission" data-source-line="10" data-uid="ent0007" id="entity_Permission"><ellipse cx="613.9107" cy="346.4821" fill="#F1F1F1" rx="115.4107" ry="25.4821" style="stroke:#181818;stroke-width:0.5;"/><text fill="#000000" font-family="Arial" font-size="14" lengthAdjust="spacing" textLength="209.918" x="508.9518" y="351.0315">&#1055;&#1088;&#1086;&#1074;&#1077;&#1088;&#1080;&#1090;&#1100; &#1087;&#1088;&#1072;&#1074;&#1086; &#1088;&#1072;&#1089;&#1087;&#1086;&#1088;&#1103;&#1078;&#1077;&#1085;&#1080;&#1103;</text></g><!--entity U13--><g class="entity" data-entity="U13" data-source-line="11" data-uid="ent0008" id="entity_U13"><ellipse cx="270.836" cy="118.3672" fill="#F1F1F1" rx="64.836" ry="15.3672" style="stroke:#181818;stroke-width:0.5;"/><text fill="#000000" font-family="Arial" font-size="14" lengthAdjust="spacing" textLength="93.8916" x="223.8902" y="122.9165">UC-13. &#1057;&#1090;&#1072;&#1074;&#1082;&#1072;</text></g><!--entity U14--><g class="entity" data-entity="U14" data-source-line="12" data-uid="ent0009" id="entity_U14"><ellipse cx="270.9188" cy="176.4838" fill="#F1F1F1" rx="107.9188" ry="23.9838" style="stroke:#181818;stroke-width:0.5;"/><text fill="#000000" font-family="Arial" font-size="14" lengthAdjust="spacing" textLength="193.7852" x="174.0262" y="181.0331">UC-14. &#1047;&#1072;&#1074;&#1077;&#1088;&#1096;&#1077;&#1085;&#1080;&#1077; &#1072;&#1091;&#1082;&#1094;&#1080;&#1086;&#1085;&#1072;</text></g><!--entity U15--><g class="entity" data-entity="U15" data-source-line="13" data-uid="ent0010" id="entity_U15"><ellipse cx="270.8908" cy="378.2782" fill="#F1F1F1" rx="126.8908" ry="27.7782" style="stroke:#181818;stroke-width:0.5;"/><text fill="#000000" font-family="Arial" font-size="14" lengthAdjust="spacing" textLength="234.3428" x="153.7194" y="382.8275">UC-15. &#1057;&#1087;&#1088;&#1072;&#1074;&#1086;&#1095;&#1085;&#1080;&#1082;, &#1090;&#1072;&#1088;&#1080;&#1092; &#1080; &#1076;&#1086;&#1089;&#1090;&#1091;&#1087;</text></g><!--entity U16--><g class="entity" data-entity="U16" data-source-line="14" data-uid="ent0011" id="entity_U16"><ellipse cx="271.1531" cy="311.5306" fill="#F1F1F1" rx="93.1531" ry="21.0306" style="stroke:#181818;stroke-width:0.5;"/><text fill="#000000" font-family="Arial" font-size="14" lengthAdjust="spacing" textLength="161.3418" x="190.4822" y="316.0799">UC-16. &#1055;&#1088;&#1086;&#1089;&#1084;&#1086;&#1090;&#1088; &#1072;&#1091;&#1076;&#1080;&#1090;&#1072;</text></g><g class="link" data-entity-1="Subscriber" data-entity-2="U12" data-uid="lnk12" id="link_Subscriber_U12"><path d="M91.5011,191.9787 C105.1693,197.8879 121.1759,204.4189 136,209.5 C145.001,212.5852 154.4146,215.5753 163.8991,218.4264" fill="none" style="stroke:#181818;stroke-width:1;"/></g><g class="link" data-entity-1="Subscriber" data-entity-2="U13" data-uid="lnk13" id="link_Subscriber_U13"><path d="M91.6954,160.2522 C105.2528,154.309 121.1306,147.9567 136,143.5 C158.4423,136.7736 183.5668,131.5109 205.9426,127.5857" fill="none" style="stroke:#181818;stroke-width:1;"/></g><g class="link" data-entity-1="Subscriber" data-entity-2="U14" data-uid="lnk14" id="link_Subscriber_U14"><path d="M91.6418,176.5 C111.2346,176.5 137.0213,176.5 162.877,176.5" fill="none" style="stroke:#181818;stroke-width:1;"/></g><g class="link" data-entity-1="Moderator" data-entity-2="Permission" data-uid="lnk15" id="link_Moderator_Permission"><path d="M307.528,450.4142 C361.7734,431.9612 466.474,396.3446 538.0293,372.0032" fill="none" style="stroke:#181818;stroke-width:1;"/></g><g class="link" data-entity-1="Admin" data-entity-2="U15" data-uid="lnk16" id="link_Admin_U15"><path d="M107.0536,356.2626 C118.3366,357.8024 130.8259,359.5068 143.7237,361.267" fill="none" style="stroke:#181818;stroke-width:1;"/></g><g class="link" data-entity-1="Admin" data-entity-2="U16" data-uid="lnk17" id="link_Admin_U16"><path d="M107.0536,340.6386 C128.1478,336.8665 153.4585,332.3404 177.7722,327.9925" fill="none" style="stroke:#181818;stroke-width:1;"/></g><g class="link" data-entity-1="U12" data-entity-2="Permission" data-uid="lnk18" id="link_U12_Permission"><polygon fill="#181818" points="529.6209,320.9687,522.1742,314.5231,524.8372,319.5139,519.8464,322.1769,529.6209,320.9687" style="stroke:#181818;stroke-width:1;"/><path d="M367.3302,272.5703 C377.6877,275.5612 388.0689,278.5802 398,281.5 C441.4909,294.2864 484.0776,307.1179 523.8805,319.2229" fill="none" style="stroke:#181818;stroke-width:1;stroke-dasharray:7,7;"/><text fill="#000000" font-family="Arial" font-size="13" lengthAdjust="spacing" textLength="55.6563" x="418" y="283.6938">&#171;include&#187;</text></g><!--SRC=[PLBBQXj14BpFLtHqZaHiFGx124mWjuH0y0UCjIDvoJxCxeeGGa2F43lOn3a4d4D0-0yM8INBIbhzGiyVfRkbh2JdDjDJNLLJtKyk8ztpDNZwGzXF8FPDeWEjFDDD80aXSdiN2JXkP3g96mOgVkS6bphIFiGNsWdVkq4FkjgBpTwBOxgwxoKlmo1vhNq3fv6hFQKxIHX11ITOu0pNcDcXlS8Cymhe6Dxsp-DEv9wRg0J-4k3S3Z2r8opiG82lGiT4cX0bxZkXbaIq4ihH8_ofuxk1Oliww7c6y3_n0TW5WOZStjbhp36hm4VLZqr7nuGvUr4zEgu1_Y0BQpksGym1Cy2flM49J76A2vop9Cw1ZaoMYjxPqV6E1oVafY0m_o8ZRxT0V0FfBq2S3YcAWctWxmsXlHEUDoRotJZcp0zirSdMmzP2NchM3q4D0jqBX7zulNEQsZ7czWjT2YhzwsuSTZTPOkUJfiJT-LDWMVd8PqbZHcyS-1ZNMwBc8L6BY2G1-kMICxA3ZOKPXr7AjzGdjPi_LAiIukDA_RzAGvNBm8Mzn6Je6r1p_z9In0orMdiF3C_XvCGDEbxVCUss2iB4RBS-x8g895bkmHHNTEGjur0vc2NDb5OWbU79kErNpejEovgIOHLINzaRXXQu88Oh2kAR7O4G_Q5C5lPMyXrHpqGMPauvfGm4NaFURX6XwnGutcSrPG87sF5V]--></g></svg>