<svg xmlns="http://www.w3.org/2000/svg" xmlns:xlink="http://www.w3.org/1999/xlink" contentStyleType="text/css" data-diagram-type="DESCRIPTION" height="989.8958px" preserveAspectRatio="none" style="width:1515px;height:989px;background:#FFFFFF;" version="1.1" viewBox="0 0 1515 989" width="1515.3125px" zoomAndPan="magnify"><defs/><g><!--cluster ??????? ?????--><g class="cluster" data-entity="....... ....." data-source-line="7" data-uid="ent0002" id="cluster_....... ....."><polygon fill="none" points="620.2083,29.7917,633.75,16.25,983.125,16.25,983.125,158.4375,969.5833,171.9792,620.2083,171.9792,620.2083,29.7917" style="stroke:#181818;stroke-width:1.3542;"/><line style="stroke:#181818;stroke-width:1.3542;" x1="969.5833" x2="983.125" y1="29.7917" y2="16.25"/><line style="stroke:#181818;stroke-width:1.3542;" x1="620.2083" x2="969.5833" y1="29.7917" y2="29.7917"/><line style="stroke:#181818;stroke-width:1.3542;" x1="969.5833" x2="969.5833" y1="29.7917" y2="171.9792"/><text fill="#000000" font-family="Arial" font-size="24.375" font-weight="bold" lengthAdjust="spacing" textLength="179.7656" x="706.3672" y="56.7176">&#1056;&#1072;&#1073;&#1086;&#1095;&#1077;&#1077; &#1084;&#1077;&#1089;&#1090;&#1086;</text></g><!--cluster helios: ??????? ?????? ????????--><g class="cluster" data-entity="helios. ....... ...... ........" data-source-line="10" data-uid="ent0004" id="cluster_helios. ....... ...... ........"><polygon fill="none" points="18.9583,34.5313,32.5,20.9896,609.375,20.9896,609.375,757.6563,595.8333,771.1979,18.9583,771.1979,18.9583,34.5313" style="stroke:#181818;stroke-width:1.3542;"/><line style="stroke:#181818;stroke-width:1.3542;" x1="595.8333" x2="609.375" y1="34.5313" y2="20.9896"/><line style="stroke:#181818;stroke-width:1.3542;" x1="18.9583" x2="595.8333" y1="34.5313" y2="34.5313"/><line style="stroke:#181818;stroke-width:1.3542;" x1="595.8333" x2="595.8333" y1="34.5313" y2="771.1979"/><text fill="#000000" font-family="Arial" font-size="24.375" font-weight="bold" lengthAdjust="spacing" textLength="386.7865" x="115.3568" y="61.4572">helios: &#1091;&#1095;&#1105;&#1090;&#1085;&#1072;&#1103; &#1079;&#1072;&#1087;&#1080;&#1089;&#1100; &#1089;&#1090;&#1091;&#1076;&#1077;&#1085;&#1090;&#1072;</text></g><!--cluster ???? JVM Spring Boot--><g class="cluster" data-entity=".... JVM Spring Boot" data-source-line="11" data-uid="ent0005" id="cluster_.... JVM Spring Boot"><polygon fill="none" points="29.7917,242.3958,43.3333,228.8542,598.5417,228.8542,598.5417,746.8229,585,760.3646,29.7917,760.3646,29.7917,242.3958" style="stroke:#181818;stroke-width:1.3542;"/><line style="stroke:#181818;stroke-width:1.3542;" x1="585" x2="598.5417" y1="242.3958" y2="228.8542"/><line style="stroke:#181818;stroke-width:1.3542;" x1="29.7917" x2="585" y1="242.3958" y2="242.3958"/><line style="stroke:#181818;stroke-width:1.3542;" x1="585" x2="585" y1="242.3958" y2="760.3646"/><text fill="#000000" font-family="Arial" font-size="24.375" font-weight="bold" lengthAdjust="spacing" textLength="265.8279" x="175.836" y="269.3218">&#1054;&#1076;&#1085;&#1072; JVM Spring Boot</text></g><!--cluster ????????? ??????--><g class="cluster" data-entity="......... ......" data-source-line="19" data-uid="ent0011" id="cluster_......... ......"><polygon fill="none" points="1156.4583,632.3958,1170,618.8542,1492.2917,618.8542,1492.2917,759.6875,1478.75,773.2292,1156.4583,773.2292,1156.4583,632.3958" style="stroke:#181818;stroke-width:1.3542;"/><line style="stroke:#181818;stroke-width:1.3542;" x1="1478.75" x2="1492.2917" y1="632.3958" y2="618.8542"/><line style="stroke:#181818;stroke-width:1.3542;" x1="1156.4583" x2="1478.75" y1="632.3958" y2="632.3958"/><line style="stroke:#181818;stroke-width:1.3542;" x1="1478.75" x2="1478.75" y1="632.3958" y2="773.2292"/><text fill="#000000" font-family="Arial" font-size="24.375" font-weight="bold" lengthAdjust="spacing" textLength="233.2169" x="1202.3499" y="659.3218">&#1054;&#1090;&#1076;&#1077;&#1083;&#1100;&#1085;&#1099;&#1081; &#1089;&#1077;&#1088;&#1074;&#1080;&#1089;</text></g><!--entity DB--><g class="entity" data-entity="DB" data-source-line="18" data-uid="ent0010" id="entity_DB"><path d="M190.9375,857.8646 C190.9375,844.3229 314.244,844.3229 314.244,844.3229 C314.244,844.3229 437.5506,844.3229 437.5506,857.8646 L437.5506,954.1387 C437.5506,967.6804 314.244,967.6804 314.244,967.6804 C314.244,967.6804 190.9375,967.6804 190.9375,954.1387 L190.9375,857.8646" fill="#F1F1F1" style="stroke:#181818;stroke-width:0.6771;"/><path d="M190.9375,857.8646 C190.9375,871.4063 314.244,871.4063 314.244,871.4063 C314.244,871.4063 437.5506,871.4063 437.5506,857.8646" fill="none" style="stroke:#181818;stroke-width:0.6771;"/><text fill="#000000" font-family="Arial" font-size="24.375" lengthAdjust="spacing" textLength="132.7771" x="204.4792" y="899.6864">PostgreSQL</text><text fill="#000000" font-family="Arial" font-size="24.375" lengthAdjust="spacing" textLength="219.5297" x="204.4792" y="927.7153">pg / studs / s465826</text><text fill="#000000" font-family="Arial" font-size="24.375" lengthAdjust="spacing" textLength="140.0015" x="204.4792" y="955.7441">&#1090;&#1072;&#1073;&#1083;&#1080;&#1094;&#1099; lf_*</text></g><!--entity Pay--><g class="entity" data-entity="Pay" data-source-line="22" data-uid="ent0013" id="entity_Pay"><rect fill="#F1F1F1" height="96.6827" rx="3.3854" ry="3.3854" style="stroke:#181818;stroke-width:0.6771;" width="269.9116" x="620.8854" y="666.9271"/><rect fill="#F1F1F1" height="13.5417" style="stroke:#181818;stroke-width:0.6771;" width="20.3125" x="863.7137" y="673.6979"/><rect fill="#F1F1F1" height="2.7083" style="stroke:#181818;stroke-width:0.6771;" width="5.4167" x="861.0054" y="676.4063"/><rect fill="#F1F1F1" height="2.7083" style="stroke:#181818;stroke-width:0.6771;" width="5.4167" x="861.0054" y="681.8229"/><text fill="#000000" font-family="Arial" font-size="24.375" lengthAdjust="spacing" textLength="215.7449" x="641.1979" y="716.8739">&#1055;&#1083;&#1072;&#1090;&#1105;&#1078;&#1085;&#1099;&#1081; &#1089;&#1077;&#1088;&#1074;&#1080;&#1089;</text><text fill="#000000" font-family="Arial" font-size="24.375" lengthAdjust="spacing" textLength="175.1239" x="641.1979" y="744.9028">&#1088;&#1072;&#1073;&#1086;&#1095;&#1080;&#1081; &#1088;&#1077;&#1078;&#1080;&#1084;</text></g><!--entity Mail--><g class="entity" data-entity="Mail" data-source-line="23" data-uid="ent0014" id="entity_Mail"><rect fill="#F1F1F1" height="96.6827" rx="3.3854" ry="3.3854" style="stroke:#181818;stroke-width:0.6771;" width="229.2906" x="914.7396" y="666.9271"/><rect fill="#F1F1F1" height="13.5417" style="stroke:#181818;stroke-width:0.6771;" width="20.3125" x="1116.9468" y="673.6979"/><rect fill="#F1F1F1" height="2.7083" style="stroke:#181818;stroke-width:0.6771;" width="5.4167" x="1114.2385" y="676.4063"/><rect fill="#F1F1F1" height="2.7083" style="stroke:#181818;stroke-width:0.6771;" width="5.4167" x="1114.2385" y="681.8229"/><text fill="#000000" font-family="Arial" font-size="24.375" lengthAdjust="spacing" textLength="153.8791" x="935.0521" y="716.8739">SMTP-&#1089;&#1077;&#1088;&#1074;&#1080;&#1089;</text><text fill="#000000" font-family="Arial" font-size="24.375" lengthAdjust="spacing" textLength="175.1239" x="935.0521" y="744.9028">&#1088;&#1072;&#1073;&#1086;&#1095;&#1080;&#1081; &#1088;&#1077;&#1078;&#1080;&#1084;</text></g><!--entity Metro--><g class="entity" data-entity="Metro" data-source-line="24" data-uid="ent0015" id="entity_Metro"><rect fill="#F1F1F1" height="96.6827" rx="3.3854" ry="3.3854" style="stroke:#181818;stroke-width:0.6771;" width="352.1058" x="620.2083" y="277.6042"/><rect fill="#F1F1F1" height="13.5417" style="stroke:#181818;stroke-width:0.6771;" width="20.3125" x="945.2308" y="284.375"/><rect fill="#F1F1F1" height="2.7083" style="stroke:#181818;stroke-width:0.6771;" width="5.4167" x="942.5225" y="287.0833"/><rect fill="#F1F1F1" height="2.7083" style="stroke:#181818;stroke-width:0.6771;" width="5.4167" x="942.5225" y="292.5"/><text fill="#000000" font-family="Arial" font-size="24.375" lengthAdjust="spacing" textLength="297.9391" x="640.5208" y="327.551">&#1054;&#1092;&#1080;&#1094;&#1080;&#1072;&#1083;&#1100;&#1085;&#1099;&#1081; &#1089;&#1072;&#1081;&#1090; &#1084;&#1077;&#1090;&#1088;&#1086;</text><text fill="#000000" font-family="Arial" font-size="24.375" lengthAdjust="spacing" textLength="250.7364" x="640.5208" y="355.5798">&#1080;&#1089;&#1090;&#1086;&#1095;&#1085;&#1080;&#1082; &#1089;&#1087;&#1088;&#1072;&#1074;&#1086;&#1095;&#1085;&#1080;&#1082;&#1072;</text></g><!--entity Browser--><g class="entity" data-entity="Browser" data-source-line="8" data-uid="ent0003" id="entity_Browser"><rect fill="#F1F1F1" height="96.6827" rx="3.3854" ry="3.3854" style="stroke:#181818;stroke-width:0.6771;" width="339.4184" x="631.7188" y="65"/><rect fill="#F1F1F1" height="13.5417" style="stroke:#181818;stroke-width:0.6771;" width="20.3125" x="944.0539" y="71.7708"/><rect fill="#F1F1F1" height="2.7083" style="stroke:#181818;stroke-width:0.6771;" width="5.4167" x="941.3455" y="74.4792"/><rect fill="#F1F1F1" height="2.7083" style="stroke:#181818;stroke-width:0.6771;" width="5.4167" x="941.3455" y="79.8958"/><text fill="#000000" font-family="Arial" font-size="24.375" lengthAdjust="spacing" textLength="93.5843" x="652.0313" y="114.9468">&#1041;&#1088;&#1072;&#1091;&#1079;&#1077;&#1088;</text><text fill="#000000" font-family="Arial" font-size="24.375" lengthAdjust="spacing" textLength="285.2518" x="652.0313" y="142.9757">HTML-&#1089;&#1090;&#1088;&#1072;&#1085;&#1080;&#1094;&#1099; / &#1092;&#1086;&#1088;&#1084;&#1099;</text></g><!--entity Frontend--><g class="entity" data-entity="Frontend" data-source-line="16" data-uid="ent0009" id="entity_Frontend"><rect fill="#F1F1F1" height="87.2036" rx="3.3854" ry="3.3854" style="stroke:#181818;stroke-width:0.6771;" width="269.8071" x="272.8646" y="69.7396"/><polygon fill="#F1F1F1" points="519.6509,76.5104,519.6509,95.4688,535.9009,95.4688,535.9009,84.6354,527.7759,76.5104,519.6509,76.5104" style="stroke:#181818;stroke-width:0.6771;"/><line style="stroke:#181818;stroke-width:0.6771;" x1="527.7759" x2="527.7759" y1="76.5104" y2="84.6354"/><line style="stroke:#181818;stroke-width:0.6771;" x1="535.9009" x2="527.7759" y1="84.6354" y2="84.6354"/><text fill="#000000" font-family="Arial" font-size="24.375" lengthAdjust="spacing" textLength="229.1821" x="286.4063" y="110.2072">&#1064;&#1072;&#1073;&#1083;&#1086;&#1085;&#1099; Thymeleaf</text><text fill="#000000" font-family="Arial" font-size="24.375" lengthAdjust="spacing" textLength="209.3298" x="286.4063" y="138.2361">HTML / CSS &#1074; JAR</text></g><!--entity Web--><g class="entity" data-entity="Web" data-source-line="12" data-uid="ent0006" id="entity_Web"><rect fill="#F1F1F1" height="96.6827" rx="3.3854" ry="3.3854" style="stroke:#181818;stroke-width:0.6771;" width="319.6733" x="247.8125" y="277.6042"/><rect fill="#F1F1F1" height="13.5417" style="stroke:#181818;stroke-width:0.6771;" width="20.3125" x="540.4024" y="284.375"/><rect fill="#F1F1F1" height="2.7083" style="stroke:#181818;stroke-width:0.6771;" width="5.4167" x="537.6941" y="287.0833"/><rect fill="#F1F1F1" height="2.7083" style="stroke:#181818;stroke-width:0.6771;" width="5.4167" x="537.6941" y="292.5"/><text fill="#000000" font-family="Arial" font-size="24.375" lengthAdjust="spacing" textLength="265.5066" x="268.125" y="327.551">Spring MVC / Thymeleaf</text><text fill="#000000" font-family="Arial" font-size="24.375" lengthAdjust="spacing" textLength="235.6805" x="268.125" y="355.5798">Spring Security / JWT</text></g><!--entity Services--><g class="entity" data-entity="Services" data-source-line="13" data-uid="ent0007" id="entity_Services"><rect fill="#F1F1F1" height="96.6827" rx="3.3854" ry="3.3854" style="stroke:#181818;stroke-width:0.6771;" width="434.7047" x="152.3438" y="455"/><rect fill="#F1F1F1" height="13.5417" style="stroke:#181818;stroke-width:0.6771;" width="20.3125" x="559.9651" y="461.7708"/><rect fill="#F1F1F1" height="2.7083" style="stroke:#181818;stroke-width:0.6771;" width="5.4167" x="557.2568" y="464.4792"/><rect fill="#F1F1F1" height="2.7083" style="stroke:#181818;stroke-width:0.6771;" width="5.4167" x="557.2568" y="469.8958"/><text fill="#000000" font-family="Arial" font-size="24.375" lengthAdjust="spacing" textLength="244.238" x="172.6563" y="504.9468">&#1055;&#1088;&#1080;&#1082;&#1083;&#1072;&#1076;&#1085;&#1099;&#1077; &#1089;&#1077;&#1088;&#1074;&#1080;&#1089;&#1099;</text><text fill="#000000" font-family="Arial" font-size="24.375" lengthAdjust="spacing" textLength="380.538" x="172.6563" y="532.9757">&#1056;&#1077;&#1078;&#1080;&#1084; demo: &#1090;&#1077;&#1089;&#1090;&#1086;&#1074;&#1099;&#1077; &#1072;&#1076;&#1072;&#1087;&#1090;&#1077;&#1088;&#1099;</text></g><!--entity Repo--><g class="entity" data-entity="Repo" data-source-line="14" data-uid="ent0008" id="entity_Repo"><rect fill="#F1F1F1" height="68.6539" rx="3.3854" ry="3.3854" style="stroke:#181818;stroke-width:0.6771;" width="545.9632" x="41.3021" y="680.4688"/><rect fill="#F1F1F1" height="13.5417" style="stroke:#181818;stroke-width:0.6771;" width="20.3125" x="560.182" y="687.2396"/><rect fill="#F1F1F1" height="2.7083" style="stroke:#181818;stroke-width:0.6771;" width="5.4167" x="557.4737" y="689.9479"/><rect fill="#F1F1F1" height="2.7083" style="stroke:#181818;stroke-width:0.6771;" width="5.4167" x="557.4737" y="695.3646"/><text fill="#000000" font-family="Arial" font-size="24.375" lengthAdjust="spacing" textLength="491.7966" x="61.6146" y="730.4155">Hibernate / JPA / JDBC / &#1092;&#1091;&#1085;&#1082;&#1094;&#1080;&#1080; PL/pgSQL</text></g><!--entity Files--><g class="entity" data-entity="Files" data-source-line="20" data-uid="ent0012" id="entity_Files"><path d="M1168.6458,681.1458 C1168.6458,667.6042 1271.4098,667.6042 1271.4098,667.6042 C1271.4098,667.6042 1374.1737,667.6042 1374.1737,681.1458 L1374.1737,749.3911 C1374.1737,762.9327 1271.4098,762.9327 1271.4098,762.9327 C1271.4098,762.9327 1168.6458,762.9327 1168.6458,749.3911 L1168.6458,681.1458" fill="#F1F1F1" style="stroke:#181818;stroke-width:0.6771;"/><path d="M1168.6458,681.1458 C1168.6458,694.6875 1271.4098,694.6875 1271.4098,694.6875 C1271.4098,694.6875 1374.1737,694.6875 1374.1737,681.1458" fill="none" style="stroke:#181818;stroke-width:0.6771;"/><text fill="#000000" font-family="Arial" font-size="24.375" lengthAdjust="spacing" textLength="65.0079" x="1182.1875" y="722.9676">MinIO</text><text fill="#000000" font-family="Arial" font-size="24.375" lengthAdjust="spacing" textLength="178.4445" x="1182.1875" y="750.9965">&#1079;&#1072;&#1082;&#1088;&#1099;&#1090;&#1099;&#1081; &#1073;&#1072;&#1082;&#1077;&#1090;</text></g><g class="link" data-entity-1="Browser" data-entity-2="Web" data-uid="lnk16" id="link_Browser_Web"><polygon fill="#181818" points="500.2433,277.5937,513.5612,276.8793,506.2744,274.5163,508.6374,267.2296,500.2433,277.5937" style="stroke:#181818;stroke-width:1.3542;"/><path d="M718.7205,161.1561 C686.4107,179.1615 648.9927,199.7735 614.7917,218.0208 C577.5176,237.9078 543.388,255.5792 507.4806,273.9009" fill="none" style="stroke:#181818;stroke-width:1.3542;"/><text fill="#000000" font-family="Arial" font-size="24.375" lengthAdjust="spacing" textLength="290.7147" x="673.0208" y="211.0926">HTTP &#1095;&#1077;&#1088;&#1077;&#1079; SSH-&#1090;&#1091;&#1085;&#1085;&#1077;&#1083;&#1100;</text></g><g class="link" data-entity-1="Web" data-entity-2="Services" data-uid="lnk17" id="link_Web_Services"><polygon fill="#181818" points="379.8765,454.7765,387.7551,444.0153,381.3127,448.1597,377.1683,441.7174,379.8765,454.7765" style="stroke:#181818;stroke-width:1.3542;"/><path d="M397.4432,373.8443 C392.003,398.9081 387.0444,421.753 381.6,446.8364" fill="none" style="stroke:#181818;stroke-width:1.3542;"/></g><g class="link" data-entity-1="Frontend" data-entity-2="Web" data-uid="lnk18" id="link_Frontend_Web"><polygon fill="#181818" points="407.6042,277.5284,413.0208,265.3409,407.6042,270.7575,402.1875,265.3409,407.6042,277.5284" style="stroke:#181818;stroke-width:1.3542;"/><path d="M407.6042,156.9026 C407.6042,191.8811 407.6042,233.2918 407.6042,269.4034" fill="none" style="stroke:#181818;stroke-width:1.3542;stroke-dasharray:9.4792,9.4792;"/><text fill="#000000" font-family="Arial" font-size="24.375" lengthAdjust="spacing" textLength="172.446" x="410.3125" y="211.0926">&#1087;&#1088;&#1077;&#1076;&#1089;&#1090;&#1072;&#1074;&#1083;&#1077;&#1085;&#1080;&#1103;</text></g><g class="link" data-entity-1="Services" data-entity-2="Repo" data-uid="lnk19" id="link_Services_Repo"><polygon fill="#181818" points="323.1304,679.8678,331.4919,669.4774,324.8671,673.3235,321.021,666.6987,323.1304,679.8678" style="stroke:#181818;stroke-width:1.3542;"/><path d="M357.2275,551.3799 C346.8688,590.4147 334.4605,637.1725 325.2144,672.0146" fill="none" style="stroke:#181818;stroke-width:1.3542;"/></g><g class="link" data-entity-1="Repo" data-entity-2="DB" data-uid="lnk20" id="link_Repo_DB"><polygon fill="#181818" points="314.1667,844.3227,319.5833,832.1352,314.1667,837.5518,308.75,832.1352,314.1667,844.3227" style="stroke:#181818;stroke-width:1.3542;"/><path d="M314.1667,749.5725 C314.1667,775.7466 314.1667,804.808 314.1667,836.1977" fill="none" style="stroke:#181818;stroke-width:1.3542;"/><text fill="#000000" font-family="Arial" font-size="24.375" lengthAdjust="spacing" textLength="63.6511" x="316.875" y="813.0197">JDBC</text></g><g class="link" data-entity-1="Services" data-entity-2="Files" data-uid="lnk21" id="link_Services_Files"><polygon fill="#181818" points="1227.3594,667.5641,1221.9611,655.3684,1222.3405,663.0194,1214.6895,663.3988,1227.3594,667.5641" style="stroke:#181818;stroke-width:1.3542;"/><path d="M587.2171,522.8549 C783.909,541.8991 1057.3761,575.0013 1156.4583,618.8542 C1182.4982,630.3792 1201.3891,644.0477 1221.3367,662.1104" fill="none" style="stroke:#181818;stroke-width:1.3542;"/><text fill="#000000" font-family="Arial" font-size="24.375" lengthAdjust="spacing" textLength="75.8743" x="1125.3125" y="601.0926">S3 API</text></g><g class="link" data-entity-1="Services" data-entity-2="Pay" data-uid="lnk22" id="link_Services_Pay"><polygon fill="#181818" points="684.0281,666.7614,676.6183,655.6721,678.3041,663.1447,670.8316,664.8305,684.0281,666.7614" style="stroke:#181818;stroke-width:1.3542;"/><path d="M471.1899,551.1629 C512.8354,571.0689 561.21,595.1398 603.9583,618.8542 C630.5679,633.6157 652.1618,646.6266 677.1593,662.4213" fill="none" style="stroke:#181818;stroke-width:1.3542;"/></g><g class="link" data-entity-1="Services" data-entity-2="Mail" data-uid="lnk23" id="link_Services_Mail"><polygon fill="#181818" points="977.3024,666.5581,971.1992,654.6995,972.0259,662.3151,964.4104,663.1419,977.3024,666.5581" style="stroke:#181818;stroke-width:1.3542;"/><path d="M587.4139,529.2624 C686.9008,546.0466 804.3374,573.7104 903.2292,618.8542 C929.6171,630.9002 949.4125,644.1308 970.9706,661.4665" fill="none" style="stroke:#181818;stroke-width:1.3542;"/></g><g class="link" data-entity-1="Metro" data-entity-2="Services" data-uid="lnk24" id="link_Metro_Services"><polygon fill="#181818" points="483.9437,454.9281,497.2748,455.322,490.2094,452.3621,493.1693,445.2967,483.9437,454.9281" style="stroke:#181818;stroke-width:1.3542;"/><path d="M681.9391,373.8443 C620.6135,398.9586 552.7798,426.7381 491.4626,451.8489" fill="none" style="stroke:#181818;stroke-width:1.3542;stroke-dasharray:9.4792,9.4792;"/><text fill="#000000" font-family="Arial" font-size="24.375" lengthAdjust="spacing" textLength="432.7396" x="622.9167" y="423.6968">&#1088;&#1091;&#1095;&#1085;&#1086;&#1077; &#1086;&#1073;&#1085;&#1086;&#1074;&#1083;&#1077;&#1085;&#1080;&#1077; &#1072;&#1076;&#1084;&#1080;&#1085;&#1080;&#1089;&#1090;&#1088;&#1072;&#1090;&#1086;&#1088;&#1086;&#1084;</text></g><!--SRC=[bLJTJXf15BxVfpZriWbQQskC5qr0Oz18IrsYDoJD00DkkiniTeSQsfW0Ddg1YV45R2zxIObKb1zVOUQDUixm8zlsfY61vVn-v_lEsMT1o2fL1Zwhovg2gCeL4ynHCW0beI2LabKeUI4lAayA9_heYO2536s11wjhBnOjlCngljgHGhdUPmwh6mlEw9YLv8adAb1cViJ_dVQMLJaaGu_vZf0b3alwk-xedtfiBdHFzq0FTSyqJKkFb-2BKvJLG0ek5CPTcuRkc3DzXm6Dl4ZdCli9YYIp7kc-EJTjM07p5MirzD2qbu15a0hbISH3vtJQxfZxdemsmPoP2tEDVKPOz0gmQaS_Of6ckGHRzKpV8g0HHdG8oHJi3Len0_OEC-068GsRabBzWNNgoHnk8Q3SSRtAVSxAUJ6rkxnO2prLH-VUKSx2FEA5sB3VS8I-Vj03X8KTJHkfCKsQN7SjodPU87Cz_Gl3XaXmLU9ChHbtkcipR3BEPHsDAICk3pzvHHujzajx1HuAfZX1oYRfUpkrPTb48aRwmPnZdpvazrU2Ylj-tnOwu854Nbcel38h4keVLie1zaV4YuEJM5XjotL1Ts4lUM0Bx8Iu45oKi4Y9ALPW4LASbP6gX1oRv4LGmQH8rKeH_RvQVxtnSZqlI1BRPYAvN_xmt9RRJirLmX1IRs0kBNVtCUv8hAT-6K_ilaCoQG4UY2JKdZAm0nemgpN1wlb8sMbS9987mwzHXR_R8D36VBNxv6pCzB8LiwmUsvbCBflud_mCy_mOd1jS_RuLgXEVlAFlJMjoMNGjOvosFzaJh3oYFQEeHzkk-sIanQS-N8NIcTuH919lQ5bX4zAvN1ReQYskEt3TTCBUpGW_bdk70YbXld8pnM5vULR6zktfMmk8-W_ex13WbJDBipNijj6N_RUTmbJQqNYGLGazxXeaixjn7_4TCrW2xNGMpjo7XzIWrmEY6DCHZL43Ufn3crtM41z74ohjkwbbtpnZFVmD]--></g></svg>