<svg xmlns="http://www.w3.org/2000/svg" width="1720" height="1400" viewBox="0 0 1720 1400">
<rect width="100%" height="100%" fill="white"/>
<text x="860.0" y="35.0" font-family="Arial, sans-serif" font-size="29" font-weight="bold" text-anchor="middle" dominant-baseline="central" fill="#263746">ИС «Потеряшки»: аукцион и управление</text>
<rect x="345" y="85" width="1005" height="1260" fill="white" stroke="#263746" stroke-width="3"/>
<text x="845" y="110.0" font-family="Arial, sans-serif" font-size="22" font-weight="normal" text-anchor="middle" dominant-baseline="central" fill="#263746">Граница информационной системы</text>
<circle cx="140" cy="470" r="20" fill="white" stroke="#263746" stroke-width="3"/>
<polyline points="140,490 140,545" fill="none" stroke="#263746" stroke-width="3"/>
<polyline points="105,513 175,513" fill="none" stroke="#263746" stroke-width="3"/>
<polyline points="140,545 110,585" fill="none" stroke="#263746" stroke-width="3"/>
<polyline points="140,545 170,585" fill="none" stroke="#263746" stroke-width="3"/>
<text x="140" y="618.0" font-family="Arial, sans-serif" font-size="28" font-weight="normal" text-anchor="middle" dominant-baseline="central" fill="#263746">Подписчик</text>
<circle cx="1550" cy="160" r="20" fill="white" stroke="#263746" stroke-width="3"/>
<polyline points="1550,180 1550,235" fill="none" stroke="#263746" stroke-width="3"/>
<polyline points="1515,203 1585,203" fill="none" stroke="#263746" stroke-width="3"/>
<polyline points="1550,235 1520,275" fill="none" stroke="#263746" stroke-width="3"/>
<polyline points="1550,235 1580,275" fill="none" stroke="#263746" stroke-width="3"/>
<text x="1550" y="308.0" font-family="Arial, sans-serif" font-size="28" font-weight="normal" text-anchor="middle" dominant-baseline="central" fill="#263746">Модератор</text>
<circle cx="1550" cy="1090" r="20" fill="white" stroke="#263746" stroke-width="3"/>
<polyline points="1550,1110 1550,1165" fill="none" stroke="#263746" stroke-width="3"/>
<polyline points="1515,1133 1585,1133" fill="none" stroke="#263746" stroke-width="3"/>
<polyline points="1550,1165 1520,1205" fill="none" stroke="#263746" stroke-width="3"/>
<polyline points="1550,1165 1580,1205" fill="none" stroke="#263746" stroke-width="3"/>
<text x="1550" y="1238.0" font-family="Arial, sans-serif" font-size="28" font-weight="normal" text-anchor="middle" dominant-baseline="central" fill="#263746">Администратор</text>
<polyline points="175,513 300,513 300,220 385,220" fill="none" stroke="#263746" stroke-width="3"/>
<polyline points="175,513 300,513 300,510 385,510" fill="none" stroke="#263746" stroke-width="3"/>
<polyline points="175,513 300,513 300,800 385,800" fill="none" stroke="#263746" stroke-width="3"/>
<ellipse cx="600" cy="220" rx="215.0" ry="57.5" fill="#edf3f8" stroke="#263746" stroke-width="3"/>
<text x="600" y="200.5" font-family="Arial, sans-serif" font-size="32" font-weight="normal" text-anchor="middle" dominant-baseline="central" fill="#263746">UC-12. Допуск</text>
<text x="600" y="239.5" font-family="Arial, sans-serif" font-size="32" font-weight="normal" text-anchor="middle" dominant-baseline="central" fill="#263746">и выставление лота</text>
<ellipse cx="1100" cy="220" rx="215.0" ry="57.5" fill="#edf3f8" stroke="#263746" stroke-width="3"/>
<text x="1100" y="200.5" font-family="Arial, sans-serif" font-size="32" font-weight="normal" text-anchor="middle" dominant-baseline="central" fill="#263746">Проверить право</text>
<text x="1100" y="239.5" font-family="Arial, sans-serif" font-size="32" font-weight="normal" text-anchor="middle" dominant-baseline="central" fill="#263746">распоряжения</text>
<ellipse cx="600" cy="510" rx="215.0" ry="57.5" fill="#edf3f8" stroke="#263746" stroke-width="3"/>
<text x="600" y="510.0" font-family="Arial, sans-serif" font-size="32" font-weight="normal" text-anchor="middle" dominant-baseline="central" fill="#263746">UC-13. Ставка</text>
<ellipse cx="600" cy="800" rx="215.0" ry="57.5" fill="#edf3f8" stroke="#263746" stroke-width="3"/>
<text x="600" y="780.5" font-family="Arial, sans-serif" font-size="32" font-weight="normal" text-anchor="middle" dominant-baseline="central" fill="#263746">UC-14. Завершение</text>
<text x="600" y="819.5" font-family="Arial, sans-serif" font-size="32" font-weight="normal" text-anchor="middle" dominant-baseline="central" fill="#263746">аукциона</text>
<ellipse cx="1100" cy="1090" rx="215.0" ry="57.5" fill="#edf3f8" stroke="#263746" stroke-width="3"/>
<text x="1100" y="1070.5" font-family="Arial, sans-serif" font-size="32" font-weight="normal" text-anchor="middle" dominant-baseline="central" fill="#263746">UC-15. Справочник,</text>
<text x="1100" y="1109.5" font-family="Arial, sans-serif" font-size="32" font-weight="normal" text-anchor="middle" dominant-baseline="central" fill="#263746">тариф и доступ</text>
<ellipse cx="1100" cy="1260" rx="215.0" ry="57.5" fill="#edf3f8" stroke="#263746" stroke-width="3"/>
<text x="1100" y="1240.5" font-family="Arial, sans-serif" font-size="32" font-weight="normal" text-anchor="middle" dominant-baseline="central" fill="#263746">UC-16. Просмотр</text>
<text x="1100" y="1279.5" font-family="Arial, sans-serif" font-size="32" font-weight="normal" text-anchor="middle" dominant-baseline="central" fill="#263746">аудита</text>
<polyline points="815,220 885,220" fill="none" stroke="#263746" stroke-width="3" stroke-dasharray="9 7"/>
<polyline points="866.0906108505937,210.86572378366418 885,220 866.0906108505937,229.13427621633582" fill="none" stroke="#263746" stroke-width="3"/>
<text x="850" y="170.0" font-family="Arial, sans-serif" font-size="20" font-weight="normal" text-anchor="middle" dominant-baseline="central" fill="#263746">«include»</text>
<polyline points="1315,220 1440,220 1440,203 1515,203" fill="none" stroke="#263746" stroke-width="3"/>
<polyline points="1515,1133 1410,1133 1410,1090 1315,1090" fill="none" stroke="#263746" stroke-width="3"/>
<polyline points="1515,1133 1410,1133 1410,1260 1315,1260" fill="none" stroke="#263746" stroke-width="3"/>
<text x="1090" y="752.0" font-family="Arial, sans-serif" font-size="25" font-weight="normal" text-anchor="middle" dominant-baseline="central" fill="#263746">UC-14 запускается</text>
<text x="1090" y="784.0" font-family="Arial, sans-serif" font-size="25" font-weight="normal" text-anchor="middle" dominant-baseline="central" fill="#263746">внутренним планировщиком.</text>
<text x="1090" y="816.0" font-family="Arial, sans-serif" font-size="25" font-weight="normal" text-anchor="middle" dominant-baseline="central" fill="#263746">Стороны получают результат.</text>
<text x="1090" y="848.0" font-family="Arial, sans-serif" font-size="25" font-weight="normal" text-anchor="middle" dominant-baseline="central" fill="#263746">Передача описана в UC-10.</text>
</svg>